<?xml version="1.0" standalone="no"?>
<!DOCTYPE svg PUBLIC "-//W3C//DTD SVG 20010904//EN"
 "http://www.w3.org/TR/2001/REC-SVG-20010904/DTD/svg10.dtd">
<svg version="1.0" xmlns="http://www.w3.org/2000/svg"
 width="188.000000pt" height="188.000000pt" viewBox="0 0 188.000000 188.000000"
 preserveAspectRatio="xMidYMid meet">
<metadata>
Created by potrace 1.14, written by Peter Selinger 2001-2017
</metadata>
<g transform="translate(0.000000,188.000000) scale(0.100000,-0.100000)"
fill="#000000" stroke="none">
<path d="M858 1795 c-1 -1 -23 -5 -48 -9 -251 -32 -494 -199 -616 -422 -123
-225 -144 -444 -69 -698 23 -80 97 -216 117 -216 5 0 1 15 -10 33 -122 202
-161 409 -117 621 72 348 341 606 700 671 36 6 202 7 231 1 12 -2 38 -7 58
-10 83 -13 205 -61 273 -107 23 -16 45 -29 50 -29 5 0 40 -29 78 -65 39 -36
74 -65 79 -65 10 0 -26 43 -59 71 -11 9 -33 28 -48 41 -78 68 -218 134 -346
165 -57 13 -263 27 -273 18z"/>
<path d="M850 1671 c0 -47 12 -92 24 -88 10 3 10 63 0 100 -8 27 -24 20 -24
-12z"/>
<path d="M973 1681 c-15 -23 -17 -60 -5 -78 4 -7 23 -16 41 -19 26 -6 33 -4
29 7 -3 8 -12 13 -21 11 -18 -3 -33 38 -23 64 4 12 13 14 32 10 19 -5 25 -3
22 6 -8 22 -61 21 -75 -1z"/>
<path d="M725 1664 c-5 -1 -22 -5 -37 -8 l-26 -6 18 -49 c11 -27 16 -51 13
-55 -11 -10 25 -7 51 6 29 12 40 39 32 71 -6 23 -34 46 -51 41z m13 -36 c15
-15 16 -45 1 -54 -15 -9 -29 7 -35 39 -5 29 12 37 34 15z"/>
<path d="M548 1592 l-27 -18 26 -44 c14 -25 28 -47 29 -49 2 -2 17 2 34 9 35
15 41 35 6 26 -32 -8 -40 3 -19 27 17 19 17 20 -4 15 -29 -8 -39 7 -16 21 12
7 15 13 8 20 -7 7 -19 5 -37 -7z"/>
<path d="M437 1514 c-3 -4 3 -24 14 -46 l20 -39 -40 21 c-45 23 -51 24 -51 10
0 -12 82 -60 103 -60 23 0 21 21 -5 75 -22 44 -29 51 -41 39z"/>
<path d="M830 1489 c-123 -31 -192 -67 -266 -136 -61 -57 -94 -100 -128 -169
-30 -60 -58 -171 -45 -180 5 -3 9 8 9 24 0 81 70 213 160 302 76 75 164 124
260 144 80 17 219 13 279 -8 24 -9 46 -14 49 -11 3 2 -1 6 -9 9 -8 2 -30 10
-49 16 -44 15 -214 21 -260 9z"/>
<path d="M1646 1467 c-62 -33 -166 -121 -166 -140 0 -5 9 -2 20 8 18 17 20 17
14 2 -3 -9 -10 -18 -15 -18 -5 -1 -14 -2 -21 -3 -6 0 -30 -31 -52 -67 -70
-115 -139 -181 -236 -227 -49 -23 -152 -52 -160 -45 -3 3 20 27 50 55 30 28
71 65 91 84 23 21 47 60 67 108 17 42 29 76 26 76 -3 0 -21 -9 -42 -19 -55
-29 -105 -88 -136 -161 -46 -110 -48 -114 -76 -137 -16 -13 -44 -25 -64 -28
-20 -4 -76 -19 -126 -34 -49 -16 -90 -26 -90 -23 0 5 49 73 60 82 18 15 80
100 95 128 9 19 17 56 18 82 1 26 5 46 10 43 4 -2 7 0 7 6 0 5 3 16 6 25 10
27 -10 18 -57 -26 -62 -59 -94 -116 -123 -228 -29 -108 -44 -132 -101 -163
-22 -12 -41 -25 -43 -29 -2 -5 -10 -8 -17 -8 -7 0 -15 -3 -17 -7 -1 -5 -30
-30 -62 -57 -39 -34 -55 -42 -47 -27 7 12 10 29 7 37 -3 8 -2 13 3 10 4 -3 13
6 20 20 14 31 14 44 0 44 -5 0 -7 -5 -4 -10 4 -6 3 -10 -2 -9 -21 4 -28 -3
-30 -27 0 -14 -6 -31 -11 -36 -7 -7 -10 -5 -8 8 2 11 -2 26 -8 34 -9 13 -9 13
6 2 15 -12 17 -11 15 7 -1 14 -7 19 -22 17 -11 -2 -20 -8 -20 -14 0 -6 -3 -14
-8 -18 -4 -4 -6 4 -5 19 1 14 6 23 10 21 4 -3 8 0 8 5 0 6 -6 11 -12 11 -10 0
-10 2 0 9 7 4 12 12 11 17 -4 25 2 45 13 38 7 -4 8 -3 4 5 -4 6 -2 19 6 28 7
9 8 14 2 10 -6 -4 -2 13 9 38 17 37 23 42 35 32 13 -10 14 -8 9 13 -4 14 -4
20 -1 13 3 -7 11 -11 17 -9 7 1 9 1 6 -1 -3 -2 -4 -26 -3 -54 3 -44 1 -49 -12
-38 -12 10 -13 9 -8 -5 3 -9 9 -16 13 -16 12 0 7 -45 -6 -58 -13 -13 -14 -12
-17 7 0 5 -4 13 -8 17 -4 3 -6 -3 -3 -15 2 -11 0 -21 -4 -21 -4 0 -8 -7 -8
-16 0 -14 2 -15 11 -2 6 8 19 14 28 12 16 -2 19 6 35 71 12 54 -4 176 -24 182
-6 2 -31 -29 -56 -69 -67 -108 -77 -180 -51 -349 5 -32 0 -44 -40 -99 l-46
-62 0 64 c0 63 -29 178 -53 206 -13 16 -29 2 -36 -30 -14 -68 -3 -154 29 -231
30 -74 31 -79 17 -110 -36 -78 -58 -164 -42 -169 5 -2 14 22 21 52 11 54 33
110 77 198 21 43 22 44 62 37 88 -16 202 4 275 48 71 43 77 63 25 73 -66 12
-226 -17 -259 -47 -15 -13 7 -11 45 5 19 7 42 12 52 11 9 -2 17 1 17 6 0 6 4
8 9 5 5 -3 30 -2 55 3 26 5 49 5 52 0 3 -5 -4 -9 -16 -9 -13 0 -18 -4 -14 -11
3 -6 15 -9 25 -6 11 3 17 1 13 -4 -3 -5 -12 -9 -20 -9 -8 0 -14 -3 -14 -8 0
-4 -10 -13 -22 -21 -21 -13 -22 -13 -9 2 8 10 9 17 3 17 -6 0 -13 -4 -17 -10
-3 -5 -12 -7 -19 -4 -8 3 -17 1 -20 -5 -4 -6 -16 -7 -29 -3 -26 10 -38 9 -54
-1 -6 -4 -14 -3 -18 3 -3 5 1 10 9 10 9 0 16 5 16 10 0 12 -2 12 -35 0 -19 -7
-24 -7 -19 2 5 8 2 9 -10 5 -14 -5 -15 -3 -6 12 16 31 138 147 175 167 34 18
35 18 132 -11 71 -21 119 -29 173 -29 75 0 160 18 160 33 0 5 -23 11 -50 14
-28 3 -56 10 -63 14 -18 12 -77 32 -126 44 -34 7 -46 7 -53 -3 -5 -9 -8 -9 -8
-1 0 7 -12 10 -32 7 -29 -3 -25 0 22 22 67 32 159 60 263 80 43 8 110 26 150
39 87 30 113 31 195 5 35 -11 89 -20 119 -20 62 0 198 30 186 41 -11 10 -233
56 -263 54 -14 -1 -41 -5 -61 -9 l-36 -6 76 78 c42 44 86 85 99 91 12 7 20 16
17 21 -3 6 0 7 8 4 22 -8 109 67 151 130 21 31 45 64 55 74 60 61 46 68 -43
19z m-38 -86 c-18 -22 -36 -37 -41 -34 -8 5 56 73 69 73 3 0 -10 -18 -28 -39z
m-52 -10 c-15 -16 -15 -19 -1 -31 23 -19 18 -33 -28 -63 l-42 -28 30 27 c17
15 30 30 30 33 0 3 3 5 8 4 14 -5 7 11 -15 35 -13 14 -18 22 -12 19 7 -4 17 0
24 8 7 8 15 15 18 15 3 0 -2 -8 -12 -19z m-330 -123 c-2 -7 -9 -26 -16 -43 -7
-16 -13 -33 -12 -37 1 -4 -7 -5 -18 -3 -11 2 -20 0 -20 -6 0 -5 5 -9 11 -9 5
0 7 -4 4 -10 -3 -5 -11 -10 -16 -10 -6 0 -7 5 -4 10 8 14 -18 13 -32 -1 -9 -9
-11 -8 -9 2 3 20 38 59 48 53 7 -5 12 10 9 29 -1 5 3 6 7 3 5 -3 17 3 27 14
21 23 24 24 21 8z m-341 -60 c-3 -42 -28 -74 -48 -61 -6 3 -7 1 -3 -5 3 -6 15
-9 25 -7 19 3 19 3 0 -30 -11 -18 -27 -39 -36 -47 -14 -11 -13 -8 1 15 11 15
14 27 7 27 -6 0 -20 -17 -31 -37 -12 -21 -18 -29 -14 -18 15 46 16 55 4 55 -7
0 -2 9 11 20 21 17 22 21 9 31 -13 9 -12 10 4 5 13 -5 17 -2 13 9 -4 8 0 18 8
22 13 8 15 12 15 34 0 5 4 8 9 5 5 -3 11 1 15 9 10 26 14 16 11 -27z m472
-144 c-3 -3 -12 -4 -19 -1 -8 3 -5 6 6 6 11 1 17 -2 13 -5z m70 -36 c-3 -8 -6
-5 -6 6 -1 11 2 17 5 13 3 -3 4 -12 1 -19z m27 6 c3 -8 2 -12 -4 -9 -6 3 -10
10 -10 16 0 14 7 11 14 -7z m36 2 c-7 -7 -14 -6 -21 1 -9 9 -7 12 9 10 14 -1
18 -5 12 -11z m-83 -18 c-3 -8 -6 -5 -6 6 -1 11 2 17 5 13 3 -3 4 -12 1 -19z
m143 6 c0 -2 -11 -3 -24 -2 -14 1 -23 5 -20 9 4 7 44 0 44 -7z m-780 -204 c0
-13 37 -13 42 1 2 5 11 7 21 4 9 -4 15 -10 12 -14 -2 -4 9 -5 26 -3 16 2 29 2
29 -1 0 -10 -73 -27 -84 -19 -11 6 -31 12 -52 14 -12 2 -15 28 -2 28 4 0 8 -4
8 -10z m158 -36 c-3 -3 -23 -7 -44 -9 -29 -3 -34 -2 -19 5 22 10 72 13 63 4z
m-654 -66 c-3 -5 0 -15 6 -23 6 -8 9 -19 6 -24 -4 -5 -2 -12 4 -16 13 -8 13
-85 -1 -85 -5 0 -7 5 -4 10 3 6 0 10 -7 11 -10 0 -10 2 0 6 6 2 12 17 11 31
-1 23 -2 24 -7 7 -8 -24 -55 -31 -50 -7 2 8 10 17 18 19 12 4 12 3 1 -5 -9 -7
-10 -12 -2 -16 18 -12 25 24 14 75 -8 40 -7 47 4 38 7 -6 10 -15 7 -21z m-24
-8 c0 -5 -5 -10 -11 -10 -5 0 -7 5 -4 10 3 6 8 10 11 10 2 0 4 -4 4 -10z m10
-29 c0 -4 -9 -12 -19 -18 -16 -10 -18 -9 -14 6 4 16 33 26 33 12z m262 -109
c5 -5 -4 -9 -21 -8 -17 1 -31 6 -31 13 0 13 38 9 52 -5z m48 8 c0 -5 -4 -10
-10 -10 -5 0 -10 5 -10 10 0 6 5 10 10 10 6 0 10 -4 10 -10z"/>
<path d="M1180 1195 c-7 -9 -10 -18 -7 -21 3 -3 10 4 17 15 13 25 8 27 -10 6z"/>
<path d="M1146 1173 c-6 -14 -5 -15 5 -6 7 7 10 15 7 18 -3 3 -9 -2 -12 -12z"/>
<path d="M862 1191 c-8 -4 -13 -11 -13 -15 3 -20 0 -26 -11 -20 -7 4 -8 3 -4
-5 11 -17 39 2 41 28 1 12 1 21 1 21 -1 0 -7 -4 -14 -9z"/>
<path d="M808 1093 c-7 -9 -7 -13 1 -13 6 0 11 5 11 11 0 8 4 8 14 0 10 -9 15
-8 19 2 6 17 -31 17 -45 0z"/>
<path d="M1219 1412 c34 -21 88 -62 119 -92 33 -33 48 -43 35 -25 -25 37 -102
102 -156 133 -66 37 -65 24 2 -16z"/>
<path d="M1680 1357 c0 -2 13 -33 29 -68 54 -121 74 -211 74 -349 0 -152 -17
-227 -80 -360 -45 -94 -77 -144 -117 -186 -12 -12 -34 -36 -50 -54 -56 -61
-148 -125 -255 -175 -114 -55 -305 -82 -452 -64 -147 18 -332 102 -440 200
-56 50 -86 66 -53 27 87 -103 265 -199 429 -232 17 -4 41 -9 55 -12 14 -3 66
-5 115 -6 283 -2 558 139 713 364 60 87 125 237 137 314 17 112 20 147 18 206
-2 70 -27 212 -45 257 -29 72 -58 130 -67 136 -6 3 -11 4 -11 2z"/>
<path d="M464 998 c2 -9 2 -19 -2 -23 -4 -4 -7 -10 -7 -13 -3 -42 -18 -81 -28
-75 -7 4 -5 -2 3 -12 8 -10 10 -16 4 -12 -7 4 -11 -3 -11 -19 0 -16 3 -22 9
-16 12 12 38 124 31 135 -3 5 3 7 13 5 11 -2 19 3 20 12 1 12 0 12 -4 1 -3
-11 -8 -8 -19 10 -8 13 -12 17 -9 7z"/>
<path d="M470 918 c0 -9 5 -20 10 -23 13 -8 13 5 0 25 -8 13 -10 13 -10 -2z"/>
<path d="M1497 913 c-3 -5 -8 -33 -12 -63 -14 -108 -77 -226 -164 -309 -60
-57 -110 -88 -196 -123 -38 -16 -56 -26 -40 -23 39 7 164 68 195 95 14 11 37
31 51 43 69 60 134 172 159 276 18 77 22 129 7 104z"/>
<path d="M1511 624 c-6 -15 -10 -28 -9 -29 2 -1 22 -14 45 -29 l43 -26 16 25
c8 13 12 29 8 36 -5 8 -9 7 -16 -5 -13 -23 -31 -20 -25 4 6 24 -8 36 -17 14
-8 -22 -25 -8 -19 16 8 29 -12 24 -26 -6z"/>
<path d="M595 625 c-5 -2 -23 -6 -39 -10 -23 -5 -27 -8 -15 -16 7 -5 19 -9 24
-9 6 0 3 5 -5 10 -12 8 -10 10 11 10 14 0 30 -5 36 -11 8 -8 13 -8 18 0 4 7 1
10 -7 9 -7 -2 -12 3 -10 10 1 6 1 12 0 11 -2 0 -7 -2 -13 -4z"/>
<path d="M495 610 c-4 -6 -12 -7 -18 -4 -7 4 -6 1 2 -7 10 -11 15 -11 18 -1 3
6 10 9 15 6 7 -4 8 -2 4 4 -9 15 -13 15 -21 2z"/>
<path d="M518 583 c7 -3 16 -2 19 1 4 3 -2 6 -13 5 -11 0 -14 -3 -6 -6z"/>
<path d="M1441 523 c0 -5 19 -23 40 -42 27 -23 43 -31 50 -24 7 7 -2 20 -26
42 -33 29 -66 41 -64 24z"/>
<path d="M603 493 c46 -52 276 -140 293 -112 3 5 -5 9 -18 10 -67 2 -162 37
-238 86 -31 20 -47 27 -37 16z"/>
<path d="M1356 438 c-22 -31 -20 -51 7 -76 28 -27 45 -27 75 -2 22 18 22 20 7
44 -17 26 -39 25 -49 -1 -4 -11 -2 -13 9 -9 9 3 15 0 15 -9 0 -8 -9 -15 -20
-15 -27 0 -40 49 -16 62 9 5 16 13 16 18 0 18 -29 10 -44 -12z"/>
<path d="M1039 395 c-3 -2 -33 -5 -67 -7 -34 -1 -62 -5 -62 -8 0 -8 131 -3
138 5 3 3 3 7 0 10 -2 3 -7 3 -9 0z"/>
<path d="M1227 354 l-27 -15 25 -50 c27 -52 46 -59 37 -13 -5 26 -5 26 21 10
16 -11 27 -13 31 -7 4 5 -3 15 -14 21 -11 6 -19 14 -19 18 7 42 -14 56 -54 36z
m33 -23 c0 -6 -4 -13 -10 -16 -5 -3 -10 1 -10 9 0 9 5 16 10 16 6 0 10 -4 10
-9z"/>
<path d="M1096 307 c-15 -11 -16 -18 -5 -60 11 -46 21 -53 53 -41 21 8 21 26
0 22 -10 -2 -19 3 -21 10 -3 6 2 12 11 12 9 0 16 6 16 14 0 9 -7 12 -20 9 -23
-6 -27 12 -4 21 8 3 12 10 9 16 -8 13 -18 13 -39 -3z"/>
<path d="M772 259 c-7 -29 -11 -54 -9 -55 2 -2 18 -7 35 -10 35 -7 46 10 12
19 -11 3 -20 10 -20 16 0 6 9 11 20 11 11 0 20 5 20 10 0 6 -7 10 -15 10 -8 0
-15 5 -15 10 0 6 9 10 20 10 24 0 27 15 4 24 -32 12 -41 5 -52 -45z"/>
<path d="M910 235 c0 -30 5 -55 10 -55 6 0 10 15 10 33 l1 32 27 -33 c40 -47
52 -42 52 24 0 40 -3 55 -12 51 -7 -2 -12 -16 -12 -32 l1 -29 -26 32 c-38 47
-51 42 -51 -23z"/>
</g>
</svg>
